<?xml version="1.0" standalone="no"?>
<!DOCTYPE svg PUBLIC "-//W3C//DTD SVG 20010904//EN"
 "http://www.w3.org/TR/2001/REC-SVG-20010904/DTD/svg10.dtd">
<svg version="1.0" xmlns="http://www.w3.org/2000/svg"
 width="626.000000pt" height="626.000000pt" viewBox="0 0 626.000000 626.000000"
 preserveAspectRatio="xMidYMid meet">
<metadata>
Created by potrace 1.11, written by Peter Selinger 2001-2013
</metadata>
<g transform="translate(0.000000,626.000000) scale(0.100000,-0.100000)"
fill="#000000" stroke="none">
<path d="M6035 6253 c-33 -2 -145 -13 -250 -24 -783 -84 -1529 -377 -2235
-877 -730 -518 -1400 -1239 -2020 -2177 -61 -93 -120 -181 -129 -195 -9 -14
-39 -61 -65 -105 -26 -44 -65 -109 -87 -144 -21 -34 -39 -65 -39 -67 0 -2 -27
-48 -60 -103 -33 -55 -60 -103 -60 -106 0 -3 -11 -22 -24 -43 -60 -93 -477
-918 -526 -1042 -18 -44 -29 -71 -148 -345 -62 -142 -195 -476 -237 -595 -13
-36 -48 -136 -79 -222 -30 -86 -60 -166 -65 -177 -6 -11 -11 -22 -11 -26 0 -3
88 -4 196 -3 l197 3 531 886 c292 487 553 922 579 967 27 45 52 84 57 87 4 3
39 -13 76 -35 237 -135 651 -160 1082 -64 234 52 434 114 543 169 170 87 346
235 553 468 121 137 142 166 124 171 -109 35 -368 66 -612 75 -265 9 -561 -5
-911 -45 l-50 -5 70 42 c74 44 306 161 365 184 19 7 85 34 145 60 195 82 330
126 535 175 179 42 297 54 484 47 154 -5 191 -12 317 -53 11 -4 43 39 123 168
60 95 116 184 125 198 10 14 35 57 56 95 22 39 61 106 88 149 33 54 44 81 36
86 -6 4 -68 17 -138 29 -253 42 -538 56 -856 41 -192 -8 -275 -16 -520 -46
l-50 -6 25 20 c35 29 342 181 505 250 409 173 780 261 1055 248 69 -3 158 -12
199 -21 40 -9 75 -14 76 -13 2 2 70 125 152 273 83 149 159 286 170 305 73
128 85 152 78 158 -4 4 -145 7 -313 6 -286 0 -490 -13 -705 -43 -40 -5 -57 -4
-54 3 5 17 386 205 552 273 240 97 435 158 637 198 73 14 143 28 154 30 12 3
24 11 27 18 9 24 137 217 216 327 102 142 178 232 264 312 l72 68 -80 -2 c-44
-1 -107 -3 -140 -5z"/>
</g>
</svg>
